# xmcd CD database file
# 
# Track frame offsets:
# 	182
# 	13182
# 	27532
# 	37782
# 	48420
# 	60032
# 	73270
# 	82195
# 	95557
# 	111457
# 	123207
# 	138107
# 	150770
# 	162407
# 	176307
# 	187120
# 	199682
# 	210007
# 	219157
# 	227532
# 	247507
# 	261632
# 
# Disc length: 3640 seconds
# 
# Submitted via: Nero 5.5.10.35
# 
# Revision: 0
# Processed by: cddbd v1.4PL0 Copyright (c) Steve Scherf et al.
#
DISCID=1d0e3616
DTITLE=Lazy Harry - Best Auissie Campfire Songs
DYEAR=1900
DGENRE=
TTITLE0=Didgeridoo Symphony
TTITLE1=I Love a Sunburnt Country
TTITLE2=Robert O'Hara Burke
TTITLE3=Ballard of Eureka
TTITLE4=Shores of Botany Bay
TTITLE5=Billy of Tea
TTITLE6=Edward Kelly
TTITLE7=Old River Days
TTITLE8=Clancy of the Overflow
TTITLE9=Sunday Best
TTITLE10=I'm a Bushie
TTITLE11=Proud to be Australian
TTITLE12=Wandiligong
TTITLE13=Old Bill
TTITLE14=Australia's on the Wallaby
TTITLE15=Country Radio
TTITLE16=House for Sale
TTITLE17=Song of the Whales
TTITLE18=A Thousand Miles Away
TTITLE19=The Band Played Waltzing Matilda
TTITLE20=The Open Road
TTITLE21=My Country
EXTD=
EXTT0=
EXTT1=
EXTT2=
EXTT3=
EXTT4=
EXTT5=
EXTT6=
EXTT7=
EXTT8=
EXTT9=
EXTT10=
EXTT11=
EXTT12=
EXTT13=
EXTT14=
EXTT15=
EXTT16=
EXTT17=
EXTT18=
EXTT19=
EXTT20=
EXTT21=
PLAYORDER=
